<svg xmlns="http://www.w3.org/2000/svg" width="800" height="800" fill="none" viewBox="0 0 24 24">
  <path fill="#fff" d="M13 2a1 1 0 1 0-2 0v.586l-.293-.293a1 1 0 0 0-1.414 1.414L11 5.414v4.172l-2.95-2.95V4.222a1 1 0 1 0-2 0v.414l-.414-.414a1 1 0 1 0-1.414 1.414l.414.414h-.414a1 1 0 0 0 0 2h2.414L9.586 11H5.414L3.707 9.293a1 1 0 0 0-1.414 1.414l.293.293H2a1 1 0 1 0 0 2h.586l-.293.293a1 1 0 1 0 1.414 1.414L5.414 13h4.172l-2.95 2.95H4.222a1 1 0 1 0 0 2h.414l-.414.414a1 1 0 1 0 1.414 1.414l.414-.414v.414a1 1 0 1 0 2 0v-2.414l2.95-2.95v4.172l-1.707 1.707a1 1 0 1 0 1.414 1.414l.293-.293V22a1 1 0 1 0 2 0v-.586l.293.293a1 1 0 0 0 1.414-1.414L13 18.586v-4.172l2.95 2.95v2.414a1 1 0 1 0 2 0v-.414l.414.414a1 1 0 0 0 1.414-1.414l-.414-.414h.414a1 1 0 1 0 0-2h-2.414L14.414 13h4.172l1.707 1.707a1 1 0 0 0 1.414-1.414L21.414 13H22a1 1 0 1 0 0-2h-.586l.293-.293a1 1 0 0 0-1.414-1.414L18.586 11h-4.172l2.95-2.95h2.414a1 1 0 1 0 0-2h-.414l.414-.414a1 1 0 0 0-1.414-1.414l-.414.414v-.414a1 1 0 1 0-2 0v2.414L13 9.586V5.414l1.707-1.707a1 1 0 0 0-1.414-1.414L13 2.586V2Z"/>
</svg>
